<?xml version="1.0" encoding="UTF-8" standalone="no" ?>
<!DOCTYPE svg PUBLIC "-//W3C//DTD SVG 1.1//EN" "http://www.w3.org/Graphics/SVG/1.1/DTD/svg11.dtd">
<svg xmlns="http://www.w3.org/2000/svg" xmlns:xlink="http://www.w3.org/1999/xlink" version="1.1" width="1080" height="1080" viewBox="0 0 1080 1080" xml:space="preserve">
<desc>Created with Fabric.js 5.2.4</desc>
<defs>
</defs>
<g transform="matrix(1 0 0 1 540 540)" id="0b5ddec5-f130-4d09-b888-1ccd91b579ff"  >
<rect style="stroke: none; stroke-width: 1; stroke-dasharray: none; stroke-linecap: butt; stroke-dashoffset: 0; stroke-linejoin: miter; stroke-miterlimit: 4; fill: rgb(255,255,255); fill-rule: nonzero; opacity: 1; visibility: hidden;" vector-effect="non-scaling-stroke"  x="-540" y="-540" rx="0" ry="0" width="1080" height="1080" />
</g>
<g transform="matrix(1 0 0 1 540 540)" id="5840d8c4-a139-4d2f-9f69-6e3733ecac2d"  >
</g>
<g transform="matrix(67.5 0 0 67.5 540 540)"  >
<g style=""   >
		<g transform="matrix(1 0 0 1 0 0)"  >
<rect style="stroke: none; stroke-width: 1; stroke-dasharray: none; stroke-linecap: butt; stroke-dashoffset: 0; stroke-linejoin: miter; stroke-miterlimit: 4; fill: rgb(255,204,50); fill-rule: nonzero; opacity: 1;" vector-effect="non-scaling-stroke"  x="-8" y="-8" rx="8" ry="8" width="16" height="16" />
</g>
		<g transform="matrix(1 0 0 1 0 -0.67)"  >
<path style="stroke: none; stroke-width: 1; stroke-dasharray: none; stroke-linecap: butt; stroke-dashoffset: 0; stroke-linejoin: miter; stroke-miterlimit: 4; fill: rgb(233,0,0); fill-rule: nonzero; opacity: 1;" vector-effect="non-scaling-stroke"  transform=" translate(-8, -7.33)" d="M 10.9203 4.01648 C 11.0198 4.04243 11.1088 4.09875 11.1749 4.17761 C 11.241 4.25647 11.2808 4.35396 11.2889 4.45652 L 11.7085 9.74734 C 11.7084 11.7946 10.0426 13.4604 7.99532 13.4605 C 7.50802 13.4608 7.02546 13.3649 6.57536 13.1782 C 6.12526 12.9915 5.71649 12.7177 5.37253 12.3725 C 4.69899 11.699 4.28172 10.7678 4.28211 9.74027 L 4.34987 4.83943 C 4.35125 4.74217 4.38126 4.64746 4.43615 4.56714 C 4.49103 4.48682 4.56836 4.42444 4.65847 4.38781 C 4.74859 4.35117 4.8475 4.34188 4.94285 4.36112 C 5.03821 4.38036 5.12578 4.42726 5.19464 4.49597 L 6.35022 5.65155 L 7.51931 1.55936 C 7.54921 1.45627 7.61176 1.36566 7.69757 1.30117 C 7.78338 1.23668 7.8878 1.20179 7.99514 1.20175 C 8.10248 1.2017 8.20692 1.23651 8.29277 1.30093 C 8.37862 1.36535 8.44124 1.45591 8.4712 1.55898 L 9.57731 5.43087 L 10.3836 4.2213 C 10.4408 4.1357 10.5231 4.07001 10.6193 4.03331 C 10.7155 3.99661 10.8206 3.99073 10.9203 4.01648 Z M 6.41979 8.17181 C 6.00196 8.58964 5.76721 9.15633 5.76719 9.74722 C 5.76716 10.3381 6.00187 10.9048 6.41967 11.3226 C 6.83747 11.7404 7.40414 11.9751 7.99503 11.9751 C 8.58591 11.975 9.1526 11.7403 9.57043 11.3225 C 10.1201 10.7728 10.3204 10.0075 10.1758 9.29929 C 10.1499 9.3322 10.1261 9.36651 10.0956 9.39696 C 9.992 9.5006 9.86664 9.57994 9.72862 9.62926 C 9.5906 9.67858 9.44336 9.69665 9.29752 9.68216 C 9.15167 9.66767 9.01087 9.62098 8.88526 9.54547 C 8.75965 9.46995 8.65238 9.3675 8.57117 9.24549 C 8.48997 9.12349 8.43687 8.98497 8.41569 8.83995 C 8.39452 8.69493 8.4058 8.54701 8.44873 8.40687 C 8.49166 8.26673 8.56516 8.13787 8.66393 8.02958 C 8.7627 7.92129 8.88428 7.83627 9.01989 7.78066 C 8.1804 7.34309 7.12489 7.46671 6.41979 8.17181 Z" stroke-linecap="round" />
</g>
</g>
</g>
</svg>