<svg xmlns="http://www.w3.org/2000/svg" width="13" height="13" viewBox="0 0 13 13" fill="none">
    <path d="M5.43206 3.94624C5.7422 3.15461 5.89727 2.75879 6.14921 2.70393C6.21545 2.68951 6.28392 2.68951 6.35016 2.70393C6.6021 2.75879 6.75717 3.15461 7.06731 3.94624C7.24368 4.39642 7.33187 4.62152 7.49688 4.77461C7.54316 4.81756 7.5934 4.8558 7.64689 4.88881C7.83761 5.00651 8.07569 5.02834 8.55186 5.072C9.35792 5.14591 9.76095 5.18287 9.88402 5.41815C9.90951 5.46688 9.92684 5.51964 9.93529 5.57423C9.9761 5.83785 9.67981 6.11384 9.08724 6.66582L8.92268 6.81911C8.64564 7.07717 8.50712 7.2062 8.427 7.36723C8.37894 7.46383 8.34671 7.56786 8.33161 7.67516C8.30644 7.85403 8.347 8.04122 8.42813 8.41559L8.45712 8.54935C8.6026 9.22073 8.67535 9.55641 8.58454 9.72142C8.50297 9.86963 8.35273 9.96452 8.18676 9.97263C8.00199 9.98167 7.74164 9.76446 7.22095 9.33004C6.8779 9.04383 6.70637 8.90073 6.51596 8.84483C6.34195 8.79374 6.15742 8.79374 5.98341 8.84483C5.793 8.90073 5.62147 9.04384 5.27842 9.33004C4.75773 9.76446 4.49738 9.98167 4.31261 9.97263C4.14664 9.96452 3.9964 9.86963 3.91483 9.72142C3.82402 9.55641 3.89677 9.22073 4.04225 8.54935L4.07124 8.41559C4.15237 8.04122 4.19293 7.85403 4.16776 7.67516C4.15266 7.56786 4.12043 7.46383 4.07237 7.36723C3.99225 7.2062 3.85373 7.07717 3.57669 6.81911L3.41214 6.66583C2.81956 6.11384 2.52327 5.83785 2.56408 5.57423C2.57253 5.51964 2.58986 5.46688 2.61535 5.41815C2.73842 5.18287 3.14145 5.14591 3.94751 5.072C4.42368 5.02834 4.66176 5.00651 4.85248 4.88881C4.90597 4.8558 4.95621 4.81756 5.00249 4.77461C5.1675 4.62152 5.25569 4.39642 5.43206 3.94624Z"
          fill="#FFCA31" stroke="#FFCA31" strokeWidth="2"/>
</svg>